<svg width="136" height="37" viewBox="0 0 136 37" fill="none" xmlns="http://www.w3.org/2000/svg">
<g clip-path="url(#clip0_47_583)">
<path d="M43.1427 15.0103C42.0422 15.0103 40.8791 15.3538 39.8392 15.9418L39.9819 15.315C39.3505 15.1734 38.901 15.1132 38.4533 15.1132C37.9236 15.1132 37.3724 15.1734 36.6393 15.315L33.3965 30.4573C33.2342 31.1773 33.1541 31.5014 32.6888 31.6101C32.6595 31.2588 32.638 31.0279 32.638 31.0279C32.638 31.0279 32.4015 24.5832 32.1728 22.5398C31.9441 20.4964 31.4867 19.4349 31.4867 19.4349C31.4867 19.4349 31.1387 14.5989 31.1133 12.8156C31.1016 12.0354 31.1935 9.6951 31.1935 9.6951C31.1935 9.6951 32.7064 9.99784 33.5704 8.98873C34.4344 7.97963 34.1549 7.97963 34.5869 7.27326C35.0189 6.56689 36.0862 5.20461 35.8829 3.4872C36.5436 3.56288 36.397 3.06803 36.3149 2.90696C36.1116 2.51109 35.6796 2.73037 35.6796 2.73037C35.6796 2.73037 35.4 0.0562558 31.8405 0.00386019C28.3924 -0.0465948 27.8998 1.97161 27.8998 1.97161C27.8998 1.97161 27.7121 1.56214 27.1843 1.75426C26.5823 1.97355 26.2988 3.35912 26.2988 3.35912C26.2988 3.35912 23.6385 5.01637 21.9672 5.42972C20.3037 5.84112 18.4624 6.58824 17.3775 7.1937C16.4724 7.69825 16.2418 7.94276 15.0474 8.37163C14.0955 8.71317 11.5309 10.2734 10.5907 11.3582C9.65045 12.443 9.04839 12.9708 8.12576 13.6287C7.23636 14.2613 6.15931 15.7225 6.26291 17.1042C6.33328 18.0435 6.6519 20.2751 7.41424 21.8819C6.75355 22.6989 6.06744 23.1181 5.61003 23.4208C5.15263 23.7235 2.60171 25.5923 2.15212 26.3899C1.67126 27.2438 1.08484 27.9967 0.65285 28.3499C0.220856 28.7031 -0.3812 29.3939 0.33032 30.1507C1.04184 30.9076 1.6439 30.7484 2.63494 32.4309C3.53998 33.9659 4.46456 33.7427 4.94738 33.7427C5.4302 33.7427 6.54048 33.768 6.42124 33.3973C6.73595 33.3799 6.80242 33.5235 7.04871 33.4478C7.29501 33.3721 7.13276 33.1373 6.51507 32.8675C5.89542 32.5978 5.57485 32.7919 5.17608 32.2795C4.77732 31.7672 4.7265 31.7245 4.60921 31.3791C4.48998 31.0337 4.42351 30.6398 4.02475 30.209C3.62599 29.7781 4.07557 29.2581 4.18504 29.1319C4.2945 29.0058 7.01548 27.399 7.96352 26.516C8.65745 25.8679 8.60663 26.6422 8.60663 26.7605C8.60663 26.8789 9.1735 31.5809 9.2595 32.035C9.34356 32.4891 9.52144 33.1625 9.36897 33.5991C9.2165 34.0358 9.35138 35.0119 10.3854 35.0798C11.4195 35.1477 14.1307 35.4194 15.0807 35.3321C15.8098 35.2642 15.7238 35.0468 15.7238 35.0468C15.7238 35.0468 16.8067 35.1031 16.9103 34.812C16.9689 34.6432 16.8262 34.5267 16.8262 34.5267C16.8262 34.5267 17.2661 34.6276 17.2661 34.4433C17.2661 34.2589 16.7402 33.8708 16.0619 33.7874C15.3837 33.7039 14.7562 33.7195 14.334 33.5021C13.9098 33.2828 13.0126 33.3333 13.2315 32.3067C13.4524 31.2801 13.7221 30.2361 13.7906 28.8408C13.859 27.4436 13.5873 26.8556 13.859 25.6777C14.1307 24.4998 13.7749 23.3451 13.4524 21.9596C13.1475 20.6477 13.3175 20.7991 13.47 20.5294C13.6225 20.2596 13.8257 19.4193 13.8257 19.4193C13.8257 19.4193 18.6735 19.7725 20.6556 18.5946C21.4531 18.1405 21.4003 18.8799 21.4355 19.1166C21.4492 19.2136 21.5508 19.9394 21.6055 20.9505C21.6837 22.4059 21.7248 24.3523 21.801 25.0218C21.9281 26.157 22.2584 29.1106 22.0043 30.6747C21.7502 32.2388 21.4198 32.4076 21.1657 32.887C20.9116 33.3663 20.5304 34.0474 20.6321 34.5772C20.7337 35.107 21.0465 35.5436 20.5637 35.466C20.0809 35.3903 20.0985 35.0313 19.8443 35.3243C19.5433 35.6736 20.3448 36.5779 21.5313 36.4596C22.7178 36.3412 22.6416 35.9977 22.6064 35.8463C22.5731 35.695 23.0462 36.0152 23.1146 35.4931C23.183 34.9711 22.7588 35.0973 22.9699 34.4918C23.0618 34.2298 23.2201 33.8262 23.4958 33.3643C23.8593 32.7569 24.5044 32.0059 24.8934 30.5369C25.3508 28.8117 25.1651 29.1572 25.6049 26.3647C26.0447 23.5722 26.723 20.8127 26.723 20.8127C26.723 20.8127 27.5694 21.0824 27.8411 21.9576C28.1128 22.8328 29.1977 26.1978 29.4342 26.9041C29.6707 27.6105 30.1457 28.6545 30.0773 29.6966C30.0773 29.6966 29.9581 30.9755 30.2474 31.8507C30.3627 32.2019 30.2044 32.592 30.2552 32.9452C30.306 33.2984 30.0949 33.5079 30.0949 33.7621C30.0949 34.0164 29.6883 33.5176 29.5867 33.8048C29.485 34.0901 29.6101 34.9575 30.1692 35.0914C30.6325 35.2021 31.7643 35.2156 32.3526 35.1167C34.2194 34.8722 35.1948 33.8902 35.8633 32.6657C36.2719 31.938 36.5357 31.1268 36.741 30.2963C36.9032 29.6481 37.0459 28.9806 37.1886 28.313C37.9842 28.8991 38.9831 29.2445 40.0836 29.2445C43.9168 29.2445 47.2203 25.5807 47.9552 22.1381C48.6883 18.6761 46.9759 15.0123 43.1427 15.0123V15.0103ZM44.3058 22.0139C43.9187 23.8361 42.5113 25.699 40.6152 25.699C38.7192 25.699 38.1484 23.8361 38.5354 22.0139C38.9225 20.1917 40.2888 18.3908 42.1849 18.3908C44.081 18.3908 44.7143 20.1723 44.3058 22.0139Z" fill="#231F20"/>
<path d="M57.4767 18.288C57.68 17.8436 57.7621 17.702 57.8031 17.5797C57.8442 17.4381 57.9048 17.2964 57.9458 17.0538C58.069 16.4872 58.0885 16.1631 58.1081 15.4354C57.6604 15.3752 57.3946 15.3345 57.1092 15.3345C55.9461 15.3345 54.7029 15.6993 53.6024 16.3261L53.5008 15.416H49.5444C49.2786 16.0234 49.1163 16.4678 49.0342 16.9141C48.9326 17.3391 48.9111 17.7854 48.9111 18.3928H49.951L47.7695 28.6158C48.1976 28.7167 48.4009 28.7769 48.6257 28.8176C48.87 28.837 49.0733 28.8778 49.3802 28.8778C49.91 28.8778 50.4807 28.8176 51.2353 28.5944L52.6837 21.8742C53.1724 19.5669 54.9883 17.9872 57.4747 18.2919L57.4767 18.288Z" fill="#231F20"/>
<path d="M58.72 15.5963C58.4346 16.2231 58.2919 16.6287 58.1902 17.0537C58.1081 17.4787 58.0671 17.9037 58.0886 18.4917H59.0875L56.9255 28.6137C57.6195 28.7748 58.1277 28.8776 58.7004 28.8776C59.2106 28.8776 59.7599 28.7961 60.4949 28.5943L63.2882 15.5983H58.72V15.5963Z" fill="#231F20"/>
<path d="M63.6947 13.6132L64.3065 10.8188C63.6341 10.6363 63.1044 10.6169 62.6137 10.6169C62.0625 10.6169 61.5328 10.6771 60.9815 10.7586H60.7372L60.1254 13.6326C60.8584 13.7335 61.349 13.7937 61.9198 13.7937C62.43 13.7937 62.9597 13.7529 63.6947 13.6113V13.6132Z" fill="#231F20"/>
<path d="M80.0265 15.0898C78.1499 15.0898 76.4376 16.0621 75.0302 17.4573C74.2561 16.0815 73.1341 15.0898 71.2165 15.0898C70.0535 15.0898 68.8513 15.4547 67.7703 16.1222L67.7097 15.3945C67.0569 15.2936 66.5467 15.2315 66.017 15.2315C65.671 15.2315 65.2624 15.2509 64.6721 15.4333L61.8593 28.5904C62.43 28.7922 62.8796 28.8136 63.2862 28.8136C63.8374 28.8136 64.4082 28.7534 65.2233 28.6118L66.6913 21.7693C67.0588 20.0073 68.4643 18.4897 70.2587 18.4897C72.1548 18.4897 72.4617 20.0694 72.0531 21.8896L70.6262 28.6098C71.238 28.7515 71.7482 28.8117 72.2369 28.8117C72.8292 28.8117 73.4 28.7515 74.2151 28.6098L75.642 21.8896C76.0095 20.1897 77.3348 18.4897 79.0667 18.4897C80.9843 18.4897 81.6567 20.0073 81.2482 21.8896L79.8212 28.6098C80.4741 28.7515 80.9843 28.8117 81.4925 28.8117C82.0633 28.8117 82.6751 28.7515 83.4902 28.6098L84.9172 21.8896C85.6717 18.4276 83.7131 15.0879 80.0226 15.0879L80.0265 15.0898Z" fill="#231F20"/>
<path d="M97.4197 23.6129L98.1136 20.4343C98.9502 16.5279 96.6456 14.4418 93.1994 14.4418C89.9565 14.4418 87.4486 16.4658 86.8172 19.5028C86.8172 19.5028 88.6312 19.7454 90.0797 19.4834C90.4472 17.7834 91.6083 17.4788 92.568 17.4788C94.3019 17.4788 95.0153 18.6936 94.9333 19.9685C94.0556 19.5843 93.1584 19.4019 92.1595 19.4019C90.5293 19.4019 88.856 19.9685 87.4486 20.9815C86.0627 21.9732 85.4509 23.3102 85.1655 24.5852C84.5752 27.3389 86.5514 29.423 89.978 29.423C91.792 29.423 93.6079 29.1203 95.0153 28.0666C95.4845 28.5731 95.9947 28.674 96.7277 28.674H97.707C97.8087 28.4916 98.7059 26.974 98.5436 25.0102C97.4021 25.0102 97.1362 25.0102 97.4216 23.6129H97.4197ZM93.7487 24.3213C93.5454 25.2314 92.7498 26.223 90.8127 26.223C88.8756 26.223 88.5081 25.2314 88.7133 24.3213C88.8971 23.4305 89.7122 22.4175 91.6298 22.4175C93.5474 22.4175 93.9344 23.4305 93.7506 24.3213H93.7487Z" fill="#231F20"/>
<path d="M108.513 18.0046C108.573 17.8435 108.636 17.6805 108.655 17.5796C108.696 17.4981 108.696 17.438 108.716 17.3972C108.716 17.337 108.757 17.2749 108.777 17.174C108.818 16.9722 108.878 16.5666 108.9 16.3648C108.941 16.163 108.941 15.9592 108.941 15.7574L108.982 15.5148H106.658L107.78 10.3529L103.905 11.7695L103.09 15.5148C103.09 15.5148 101.016 15.5148 100.625 15.7807C100.549 15.9689 100.475 16.1572 100.399 16.3648C100.338 16.5666 100.236 16.9722 100.195 17.174C100.176 17.2749 100.176 17.3351 100.176 17.3972C100.156 17.438 100.156 17.4981 100.156 17.5796C100.115 17.8028 100.074 18.2064 100.074 18.612H102.439L100.318 28.6118C101.929 29.0562 103.866 28.6118 103.866 28.6118L106.007 18.612H108.249C108.411 18.3287 108.474 18.1676 108.515 18.0046H108.513Z" fill="#231F20"/>
<path d="M100.602 15.7991C100.602 15.7991 100.618 15.7873 100.626 15.7814C100.632 15.7676 100.638 15.7518 100.643 15.7361L100.602 15.7971V15.7991Z" fill="#231F20"/>
<path d="M106.394 26.8304C106.27 27.3777 106.231 27.8822 106.19 28.4101L106.13 28.674H109.025C109.291 27.9055 109.494 27.399 109.615 26.8324C109.717 26.3259 109.758 25.8194 109.777 25.1111H106.962C106.658 25.8194 106.493 26.3259 106.392 26.8324L106.394 26.8304Z" fill="#231F20"/>
<path d="M120.176 24.4222C119.279 25.3944 118.382 25.8388 117.465 25.8388C115.772 25.8388 114.793 24.2999 115.284 21.9926C115.772 19.726 117.364 18.2472 119.097 18.2472C120.077 18.2472 120.79 18.713 121.259 19.724C121.259 19.724 123.136 18.6509 124.053 17.4167C123.136 15.7575 121.545 14.7445 119.588 14.7445C115.958 14.7445 112.328 18.0842 111.472 22.1129C110.616 26.1202 112.817 29.4813 116.447 29.4813C118.403 29.4813 120.403 28.4683 122.055 26.7897C121.646 25.5341 120.178 24.4222 120.178 24.4222H120.176Z" fill="#231F20"/>
<path d="M136 15.3945H125.173C124.336 16.8112 124.44 18.6935 124.44 18.6935H130.372L122.462 25.7592C121.789 26.9934 121.85 28.6739 121.85 28.6739H132.718C132.718 28.6739 133.555 26.7508 133.432 25.3128H127.436L135.347 18.3694C135.898 17.1954 136 15.3945 136 15.3945Z" fill="#231F20"/>
</g>
<defs>
<clipPath id="clip0_47_583">
<rect width="136" height="36.4693" fill="white"/>
</clipPath>
</defs>
</svg>
