<svg width="49" height="37" viewBox="0 0 49 37" fill="none" xmlns="http://www.w3.org/2000/svg">
<path d="M43.141 15.0074C42.0405 15.0074 40.8774 15.3509 39.8375 15.9389L39.9802 15.3121C39.3488 15.1704 38.8993 15.1103 38.4516 15.1103C37.9219 15.1103 37.3707 15.1704 36.6376 15.3121L33.3947 30.4544C33.2325 31.1744 33.1524 31.4984 32.6871 31.6071C32.6578 31.2559 32.6363 31.0249 32.6363 31.0249C32.6363 31.0249 32.3998 24.5803 32.1711 22.5369C31.9424 20.4934 31.485 19.4319 31.485 19.4319C31.485 19.4319 31.137 14.596 31.1116 12.8126C31.0999 12.0325 31.1918 9.69217 31.1918 9.69217C31.1918 9.69217 32.7047 9.99491 33.5687 8.9858C34.4327 7.9767 34.1532 7.9767 34.5852 7.27033C35.0172 6.56396 36.0844 5.20168 35.8812 3.48427C36.5419 3.55995 36.3952 3.0651 36.3131 2.90403C36.1099 2.50816 35.6779 2.72744 35.6779 2.72744C35.6779 2.72744 35.3983 0.0533261 31.8388 0.000930507C28.3906 -0.0495245 27.8981 1.96868 27.8981 1.96868C27.8981 1.96868 27.7104 1.55921 27.1826 1.75133C26.5806 1.97062 26.2971 3.35619 26.2971 3.35619C26.2971 3.35619 23.6368 5.01344 21.9655 5.42679C20.302 5.83819 18.4606 6.58531 17.3758 7.19077C16.4707 7.69532 16.2401 7.93983 15.0457 8.3687C14.0938 8.71024 11.5292 10.2705 10.589 11.3553C9.64874 12.44 9.04669 12.9679 8.12405 13.6257C7.23465 14.2584 6.1576 15.7196 6.2612 17.1013C6.33157 18.0405 6.65019 20.2722 7.41253 21.879C6.75184 22.696 6.06573 23.1152 5.60832 23.4179C5.15092 23.7206 2.6 25.5894 2.15042 26.387C1.66955 27.2408 1.08314 27.9938 0.651141 28.3469C0.219147 28.7001 -0.382909 29.391 0.328611 30.1478C1.04013 30.9046 1.64219 30.7455 2.63323 32.428C3.53827 33.963 4.46285 33.7398 4.94567 33.7398C5.42849 33.7398 6.53877 33.765 6.41953 33.3944C6.73424 33.3769 6.80071 33.5205 7.047 33.4448C7.2933 33.3692 7.13105 33.1344 6.51336 32.8646C5.89371 32.5949 5.57314 32.7889 5.17438 32.2766C4.77561 31.7643 4.72479 31.7216 4.6075 31.3762C4.48827 31.0308 4.42181 30.6368 4.02304 30.206C3.62428 29.7752 4.07386 29.2551 4.18333 29.129C4.29279 29.0029 7.01377 27.3961 7.96181 26.5131C8.65574 25.865 8.60492 26.6392 8.60492 26.7576C8.60492 26.876 9.17179 31.578 9.2578 32.0321C9.34185 32.4862 9.51973 33.1596 9.36726 33.5962C9.21479 34.0328 9.34967 35.009 10.3837 35.0769C11.4178 35.1448 14.129 35.4165 15.079 35.3291C15.8081 35.2612 15.7221 35.0439 15.7221 35.0439C15.7221 35.0439 16.805 35.1002 16.9086 34.8091C16.9672 34.6402 16.8245 34.5238 16.8245 34.5238C16.8245 34.5238 17.2643 34.6247 17.2643 34.4404C17.2643 34.256 16.7385 33.8679 16.0602 33.7844C15.3819 33.701 14.7545 33.7165 14.3323 33.4992C13.9081 33.2799 13.0109 33.3304 13.2298 32.3038C13.4507 31.2772 13.7204 30.2332 13.7888 28.8379C13.8573 27.4407 13.5856 26.8527 13.8573 25.6748C14.129 24.4968 13.7732 23.3422 13.4507 21.9566C13.1457 20.6448 13.3158 20.7962 13.4683 20.5264C13.6207 20.2567 13.824 19.4164 13.824 19.4164C13.824 19.4164 18.6718 19.7696 20.6538 18.5917C21.4514 18.1376 21.3986 18.8769 21.4338 19.1137C21.4475 19.2107 21.5491 19.9365 21.6038 20.9475C21.682 22.403 21.7231 24.3494 21.7993 25.0189C21.9264 26.1541 22.2567 29.1077 22.0026 30.6718C21.7485 32.2359 21.4181 32.4047 21.164 32.884C20.9099 33.3633 20.5287 34.0445 20.6304 34.5743C20.732 35.104 21.0448 35.5407 20.562 35.463C20.0792 35.3874 20.0967 35.0284 19.8426 35.3214C19.5416 35.6707 20.343 36.575 21.5296 36.4566C22.7161 36.3382 22.6398 35.9948 22.6047 35.8434C22.5714 35.692 23.0445 36.0122 23.1129 35.4902C23.1813 34.9682 22.7571 35.0943 22.9682 34.4889C23.0601 34.2269 23.2184 33.8233 23.4941 33.3614C23.8576 32.754 24.5027 32.003 24.8917 30.534C25.3491 28.8088 25.1634 29.1542 25.6032 26.3617C26.043 23.5692 26.7213 20.8097 26.7213 20.8097C26.7213 20.8097 27.5677 21.0795 27.8394 21.9547C28.1111 22.8299 29.196 26.1948 29.4325 26.9012C29.669 27.6076 30.144 28.6516 30.0756 29.6937C30.0756 29.6937 29.9564 30.9726 30.2457 31.8478C30.361 32.199 30.2027 32.5891 30.2535 32.9422C30.3043 33.2954 30.0932 33.505 30.0932 33.7592C30.0932 34.0134 29.6866 33.5147 29.585 33.8019C29.4833 34.0872 29.6084 34.9546 30.1675 35.0885C30.6308 35.1991 31.7625 35.2127 32.3509 35.1137C34.2177 34.8692 35.1931 33.8873 35.8616 32.6628C36.2701 31.9351 36.534 31.1239 36.7393 30.2933C36.9015 29.6452 37.0442 28.9776 37.1869 28.3101C37.9825 28.8961 38.9813 29.2416 40.0819 29.2416C43.9151 29.2416 47.2186 25.5777 47.9535 22.1352C48.6866 18.6732 46.9742 15.0094 43.141 15.0094V15.0074ZM44.3041 22.011C43.917 23.8332 42.5096 25.6961 40.6135 25.6961C38.7175 25.6961 38.1467 23.8332 38.5337 22.011C38.9207 20.1888 40.2871 18.3879 42.1832 18.3879C44.0793 18.3879 44.7126 20.1694 44.3041 22.011Z" fill="#231F20"/>
</svg>
